<?xml version="1.0" encoding="utf-8"?>
<!-- Generator: Adobe Illustrator 25.2.0, SVG Export Plug-In . SVG Version: 6.00 Build 0)  -->
<svg version="1.1" id="Camada_1" xmlns="http://www.w3.org/2000/svg" xmlns:xlink="http://www.w3.org/1999/xlink" x="0px" y="0px"
	 viewBox="0 0 1340.96 217.71" style="enable-background:new 0 0 1340.96 217.71;" xml:space="preserve">
<style type="text/css">
	.st0{fill:#191919;}
	.st1{fill:#01FF4F;}
</style>
<g>
	<g>
		<g>
			<path class="st0" d="M626.63,200.13c9.07,0,16.42-7.35,16.42-16.42V134.1c0-0.25,0.25-11.36,5.68-21.72
				c6.67-12.59,17.78-18.76,34.07-18.76s27.4,6.17,34.07,18.76c5.43,10.37,5.68,21.48,5.68,21.48v49.86
				c0,9.07,7.35,16.42,16.42,16.42l0,0c9.07,0,16.42-7.35,16.42-16.42v-49.86c0-1.73-0.25-18.52-8.64-35.3
				c-11.85-23.95-34.56-37.03-63.94-37.03s-51.84,13.33-63.94,37.03c-8.39,16.79-8.64,33.58-8.64,35.3v49.86
				C610.22,192.78,617.57,200.13,626.63,200.13L626.63,200.13z"/>
			<path class="st0" d="M477.11,61.12c8.72,0,15.79,7.07,15.79,15.79v50.72c0,0.25,0.24,11.44,5.46,21.88
				c6.41,12.68,17.1,18.9,32.77,18.9c15.67,0,26.36-6.22,32.77-18.9c5.22-10.45,5.46-21.64,5.46-21.64V76.9
				c0-8.72,7.07-15.79,15.79-15.79l0,0c8.72,0,15.79,7.07,15.79,15.79v50.97c0,1.74-0.24,18.65-8.31,35.56
				c-11.4,24.12-33.24,37.3-61.5,37.3c-28.26,0-49.87-13.43-61.5-37.3c-8.07-16.91-8.31-33.82-8.31-35.56V76.9
				C461.32,68.19,468.39,61.12,477.11,61.12L477.11,61.12z"/>
			<path class="st0" d="M1200.75,200.7c9.13,0,16.53-7.4,16.53-16.53v-49.96c0-0.25,0.25-11.44,5.72-21.88
				c6.71-12.68,17.9-18.89,34.31-18.89s27.59,6.22,34.31,18.89c5.47,10.44,5.72,21.63,5.72,21.63v50.21
				c0,9.13,7.4,16.53,16.53,16.53l0,0c9.13,0,16.53-7.4,16.53-16.53v-50.21c0-1.74-0.25-18.65-8.7-35.55
				c-11.93-24.11-34.8-37.29-64.39-37.29s-52.2,13.42-64.39,37.29c-8.45,16.9-8.7,33.81-8.7,35.55v50.21
				C1184.22,193.29,1191.62,200.7,1200.75,200.7L1200.75,200.7z"/>
			<path class="st0" d="M1038.95,184.96c0-8.72-7.07-15.79-15.79-15.79h-47.72c-0.24,0-10.92-0.24-20.9-5.46
				c-12.11-6.41-18.05-17.1-18.05-32.77c0-15.67,5.94-26.36,18.05-32.77c9.97-5.22,20.66-5.46,20.66-5.46h47.96
				c8.72,0,15.79-7.07,15.79-15.79l0,0c0-8.72-7.07-15.79-15.79-15.79H975.2c-1.66,0-17.81,0.24-33.96,8.31
				c-23.03,11.4-35.62,33.24-35.62,61.5s12.82,49.87,35.62,61.5c16.15,8.07,32.3,8.31,33.96,8.31h47.96
				C1031.88,200.75,1038.95,193.68,1038.95,184.96L1038.95,184.96z"/>
			<g>
				<path class="st0" d="M1173.82,130.84c0,34.65-22.46,69.7-66.79,69.7c-45.11,0-67.18-35.04-67.18-69.7
					c0-34.65,22.07-69.5,67.18-69.5C1151.36,61.34,1173.82,96.18,1173.82,130.84z M1147.68,131.22c0-22.65-13.75-45.3-40.65-45.3
					c-27.3,0-40.85,22.65-40.85,45.3c0,22.46,13.55,44.91,40.85,44.91C1133.94,176.14,1147.68,153.68,1147.68,131.22z"/>
			</g>
			<path class="st0" d="M864.03,18.73v26.41c0,8.73-7.08,15.81-15.81,15.81h-15.15c-1.66,0-17.83,0.24-34,8.32
				c-23.06,11.41-35.66,33.29-35.66,61.58s12.84,49.93,35.66,61.58c16.17,8.08,32.33,8.32,34,8.32h48.02
				c8.73,0,15.81-7.08,15.81-15.81l0,0c0-8.73-7.08-15.81-15.81-15.81h-47.78c-0.24,0-10.94-0.24-20.92-5.47
				c-12.12-6.42-18.07-17.12-18.07-32.81s5.95-26.39,18.07-32.81c9.99-5.23,20.69-5.47,20.69-5.47h15.15
				c8.73,0,15.81,7.08,15.81,15.81v23.92c0,8.73,7.08,15.81,15.81,15.81h1.25c8.73,0,15.81-7.08,15.81-15.81V92.56V60.94V18.73
				c0-8.73-7.08-15.81-15.81-15.81h-1.25C871.11,2.92,864.03,10,864.03,18.73z"/>
		</g>
	</g>
	<g>
		<g>
			<path class="st1" d="M254.94,56.31c0,11.15,9.04,20.18,20.18,20.18h61c0.3,0,13.96,0.3,26.71,6.98
				c15.48,8.2,23.07,21.86,23.07,41.89s-7.59,33.69-23.07,41.89c-12.75,6.68-26.41,6.98-26.41,6.98h-61.3
				c-11.15,0-20.18,9.04-20.18,20.18l0,0c0,11.15,9.04,20.18,20.18,20.18h61.3c2.12,0,22.77-0.3,43.4-10.62
				c29.44-14.57,45.53-42.49,45.53-78.61s-16.39-63.74-45.53-78.61c-20.64-10.32-41.28-10.62-43.4-10.62h-61.3
				C263.98,36.12,254.94,45.16,254.94,56.31z"/>
			<path class="st1" d="M227.37,209.35v-69.26h38.48c8.21,0,14.87-6.66,14.87-14.87s-6.66-14.87-14.87-14.87h-38.48V41.09
				c0-3.65-2.74-6.39-5.47-6.39H101.11c-2.13,0-23.12,0.61-43.51,10.65c-28.29,15.21-46.25,44.11-46.25,80.02
				c0,36.81,16.73,64.8,45.94,79.71c20.69,10.34,41.68,10.65,43.81,10.65h120.79C224.63,215.74,227.37,213.3,227.37,209.35z
				 M99.6,184.89c-0.36,0-15.21-0.41-29.32-9.03c-17.01-10.26-24.98-26.69-24.98-50.5c0-23.4,8.32-40.24,24.98-50.91
				c14.84-8.62,28.95-8.62,28.95-8.62h100.99v44.53H95.74c-8.21,0-14.87,6.66-14.87,14.87c0,8.21,6.66,14.87,14.87,14.87h104.48
				v44.8L99.6,184.89L99.6,184.89z"/>
		</g>
	</g>
</g>
</svg>
